<svg id="visual" viewBox="0 0 960 540" width="960" height="540" xmlns="http://www.w3.org/2000/svg" xmlns:xlink="http://www.w3.org/1999/xlink" version="1.1"><rect x="0" y="0" width="960" height="540" fill="#001220"></rect><path d="M0 365L22.8 360.5C45.7 356 91.3 347 137 338.8C182.7 330.7 228.3 323.3 274 324.7C319.7 326 365.3 336 411.2 341.3C457 346.7 503 347.3 548.8 352.8C594.7 358.3 640.3 368.7 686 372.8C731.7 377 777.3 375 823 365.3C868.7 355.7 914.3 338.3 937.2 329.7L960 321L960 541L937.2 541C914.3 541 868.7 541 823 541C777.3 541 731.7 541 686 541C640.3 541 594.7 541 548.8 541C503 541 457 541 411.2 541C365.3 541 319.7 541 274 541C228.3 541 182.7 541 137 541C91.3 541 45.7 541 22.8 541L0 541Z" fill="#fa7268"></path><path d="M0 355L22.8 362.2C45.7 369.3 91.3 383.7 137 386.5C182.7 389.3 228.3 380.7 274 374C319.7 367.3 365.3 362.7 411.2 367.2C457 371.7 503 385.3 548.8 388.5C594.7 391.7 640.3 384.3 686 381.7C731.7 379 777.3 381 823 380C868.7 379 914.3 375 937.2 373L960 371L960 541L937.2 541C914.3 541 868.7 541 823 541C777.3 541 731.7 541 686 541C640.3 541 594.7 541 548.8 541C503 541 457 541 411.2 541C365.3 541 319.7 541 274 541C228.3 541 182.7 541 137 541C91.3 541 45.7 541 22.8 541L0 541Z" fill="#ef5f67"></path><path d="M0 458L22.8 451.7C45.7 445.3 91.3 432.7 137 431.7C182.7 430.7 228.3 441.3 274 442C319.7 442.7 365.3 433.3 411.2 428.3C457 423.3 503 422.7 548.8 425.2C594.7 427.7 640.3 433.3 686 431.2C731.7 429 777.3 419 823 414.8C868.7 410.7 914.3 412.3 937.2 413.2L960 414L960 541L937.2 541C914.3 541 868.7 541 823 541C777.3 541 731.7 541 686 541C640.3 541 594.7 541 548.8 541C503 541 457 541 411.2 541C365.3 541 319.7 541 274 541C228.3 541 182.7 541 137 541C91.3 541 45.7 541 22.8 541L0 541Z" fill="#e34c67"></path><path d="M0 486L22.8 484.8C45.7 483.7 91.3 481.3 137 480C182.7 478.7 228.3 478.3 274 471.7C319.7 465 365.3 452 411.2 451.3C457 450.7 503 462.3 548.8 463.2C594.7 464 640.3 454 686 451.8C731.7 449.7 777.3 455.3 823 459.8C868.7 464.3 914.3 467.7 937.2 469.3L960 471L960 541L937.2 541C914.3 541 868.7 541 823 541C777.3 541 731.7 541 686 541C640.3 541 594.7 541 548.8 541C503 541 457 541 411.2 541C365.3 541 319.7 541 274 541C228.3 541 182.7 541 137 541C91.3 541 45.7 541 22.8 541L0 541Z" fill="#d53867"></path><path d="M0 493L22.8 493C45.7 493 91.3 493 137 491.2C182.7 489.3 228.3 485.7 274 488C319.7 490.3 365.3 498.7 411.2 503.7C457 508.7 503 510.3 548.8 508C594.7 505.7 640.3 499.3 686 494.8C731.7 490.3 777.3 487.7 823 486.3C868.7 485 914.3 485 937.2 485L960 485L960 541L937.2 541C914.3 541 868.7 541 823 541C777.3 541 731.7 541 686 541C640.3 541 594.7 541 548.8 541C503 541 457 541 411.2 541C365.3 541 319.7 541 274 541C228.3 541 182.7 541 137 541C91.3 541 45.7 541 22.8 541L0 541Z" fill="#c62368"></path></svg>