<svg xmlns="http://www.w3.org/2000/svg" version="1.1" xmlns:xlink="http://www.w3.org/1999/xlink" xmlns:svgjs="http://svgjs.com/svgjs" width="1440" height="560" preserveAspectRatio="none" viewBox="0 0 1440 560"><g mask="url(&quot;#SvgjsMask1000&quot;)" fill="none"><rect width="1440" height="560" x="0" y="0" fill="#0e2a47"></rect><path d="M-96.09 376.71L-96.09 376.71" stroke="#132e65" stroke-width="1.5"></path><path d="M-96.09 376.71L46.82 394.53" stroke="#132e65" stroke-width="1.5"></path><path d="M-96.09 376.71L-73.61 534.78" stroke="#132e65" stroke-width="1.5"></path><path d="M-73.61 534.78L-73.61 534.78" stroke="#132e65" stroke-width="1.5"></path><path d="M-73.61 534.78L-48.26 693.98" stroke="#132e65" stroke-width="1.5"></path><path d="M-48.26 693.98L-48.26 693.98" stroke="#132e65" stroke-width="1.5"></path><path d="M-48.26 693.98L93.74 691.35" stroke="#132e65" stroke-width="1.5"></path><path d="M-48.26 693.98L105.03 561.81" stroke="#132e65" stroke-width="1.5"></path><path d="M-48.26 693.98L228.13 546.68" stroke="#132e65" stroke-width="1.5"></path><path d="M-48.26 693.98L46.82 394.53" stroke="#132e65" stroke-width="1.5"></path><path d="M46.82 394.53L46.82 394.53" stroke="#132e65" stroke-width="1.5"></path><path d="M46.82 394.53L105.03 561.81" stroke="#132e65" stroke-width="1.5"></path><path d="M105.03 561.81L105.03 561.81" stroke="#132e65" stroke-width="1.5"></path><path d="M105.03 561.81L228.13 546.68" stroke="#132e65" stroke-width="1.5"></path><path d="M93.74 691.35L93.74 691.35" stroke="#132e65" stroke-width="1.5"></path><path d="M93.74 691.35L105.03 561.81" stroke="#132e65" stroke-width="1.5"></path><path d="M93.74 691.35L228.13 546.68" stroke="#132e65" stroke-width="1.5"></path><path d="M93.74 691.35L-73.61 534.78" stroke="#132e65" stroke-width="1.5"></path><path d="M93.74 691.35L366.92 640.68" stroke="#132e65" stroke-width="1.5"></path><path d="M254.96 344.58L254.96 344.58" stroke="#132e65" stroke-width="1.5"></path><path d="M254.96 344.58L405.86 395.76" stroke="#132e65" stroke-width="1.5"></path><path d="M254.96 344.58L228.13 546.68" stroke="#132e65" stroke-width="1.5"></path><path d="M254.96 344.58L46.82 394.53" stroke="#132e65" stroke-width="1.5"></path><path d="M254.96 344.58L354.23 547.54" stroke="#132e65" stroke-width="1.5"></path><path d="M254.96 344.58L105.03 561.81" stroke="#132e65" stroke-width="1.5"></path><path d="M228.13 546.68L228.13 546.68" stroke="#132e65" stroke-width="1.5"></path><path d="M228.13 546.68L354.23 547.54" stroke="#132e65" stroke-width="1.5"></path><path d="M228.13 546.68L366.92 640.68" stroke="#132e65" stroke-width="1.5"></path><path d="M405.86 395.76L405.86 395.76" stroke="#132e65" stroke-width="1.5"></path><path d="M405.86 395.76L558.4 384.93" stroke="#132e65" stroke-width="1.5"></path><path d="M405.86 395.76L354.23 547.54" stroke="#132e65" stroke-width="1.5"></path><path d="M405.86 395.76L516.93 515.75" stroke="#132e65" stroke-width="1.5"></path><path d="M405.86 395.76L228.13 546.68" stroke="#132e65" stroke-width="1.5"></path><path d="M405.86 395.76L366.92 640.68" stroke="#132e65" stroke-width="1.5"></path><path d="M354.23 547.54L354.23 547.54" stroke="#132e65" stroke-width="1.5"></path><path d="M354.23 547.54L366.92 640.68" stroke="#132e65" stroke-width="1.5"></path><path d="M354.23 547.54L516.93 515.75" stroke="#132e65" stroke-width="1.5"></path><path d="M366.92 640.68L366.92 640.68" stroke="#132e65" stroke-width="1.5"></path><path d="M366.92 640.68L545.95 687.32" stroke="#132e65" stroke-width="1.5"></path><path d="M366.92 640.68L516.93 515.75" stroke="#132e65" stroke-width="1.5"></path><path d="M366.92 640.68L105.03 561.81" stroke="#132e65" stroke-width="1.5"></path><path d="M558.4 384.93L558.4 384.93" stroke="#132e65" stroke-width="1.5"></path><path d="M558.4 384.93L656.2 387.41" stroke="#132e65" stroke-width="1.5"></path><path d="M558.4 384.93L516.93 515.75" stroke="#132e65" stroke-width="1.5"></path><path d="M558.4 384.93L679.53 553.22" stroke="#132e65" stroke-width="1.5"></path><path d="M558.4 384.93L809.78 353.14" stroke="#132e65" stroke-width="1.5"></path><path d="M516.93 515.75L516.93 515.75" stroke="#132e65" stroke-width="1.5"></path><path d="M516.93 515.75L679.53 553.22" stroke="#132e65" stroke-width="1.5"></path><path d="M516.93 515.75L545.95 687.32" stroke="#132e65" stroke-width="1.5"></path><path d="M545.95 687.32L545.95 687.32" stroke="#132e65" stroke-width="1.5"></path><path d="M545.95 687.32L669.51 672.16" stroke="#132e65" stroke-width="1.5"></path><path d="M545.95 687.32L679.53 553.22" stroke="#132e65" stroke-width="1.5"></path><path d="M545.95 687.32L354.23 547.54" stroke="#132e65" stroke-width="1.5"></path><path d="M656.2 387.41L656.2 387.41" stroke="#132e65" stroke-width="1.5"></path><path d="M656.2 387.41L809.78 353.14" stroke="#132e65" stroke-width="1.5"></path><path d="M656.2 387.41L679.53 553.22" stroke="#132e65" stroke-width="1.5"></path><path d="M656.2 387.41L516.93 515.75" stroke="#132e65" stroke-width="1.5"></path><path d="M679.53 553.22L679.53 553.22" stroke="#132e65" stroke-width="1.5"></path><path d="M679.53 553.22L669.51 672.16" stroke="#132e65" stroke-width="1.5"></path><path d="M679.53 553.22L791.9 644.31" stroke="#132e65" stroke-width="1.5"></path><path d="M679.53 553.22L849.49 490.38" stroke="#132e65" stroke-width="1.5"></path><path d="M669.51 672.16L669.51 672.16" stroke="#132e65" stroke-width="1.5"></path><path d="M669.51 672.16L791.9 644.31" stroke="#132e65" stroke-width="1.5"></path><path d="M669.51 672.16L516.93 515.75" stroke="#132e65" stroke-width="1.5"></path><path d="M856.57 100.81L856.57 100.81" stroke="#132e65" stroke-width="1.5"></path><path d="M856.57 100.81L849.28 188.13" stroke="#132e65" stroke-width="1.5"></path><path d="M856.57 100.81L991.46 109.23" stroke="#132e65" stroke-width="1.5"></path><path d="M856.57 100.81L950.66 -41.21" stroke="#132e65" stroke-width="1.5"></path><path d="M856.57 100.81L952.63 245.93" stroke="#132e65" stroke-width="1.5"></path><path d="M856.57 100.81L1101.12 48.01" stroke="#132e65" stroke-width="1.5"></path><path d="M849.28 188.13L849.28 188.13" stroke="#132e65" stroke-width="1.5"></path><path d="M809.78 353.14L809.78 353.14" stroke="#132e65" stroke-width="1.5"></path><path d="M809.78 353.14L849.49 490.38" stroke="#132e65" stroke-width="1.5"></path><path d="M809.78 353.14L849.28 188.13" stroke="#132e65" stroke-width="1.5"></path><path d="M849.49 490.38L849.49 490.38" stroke="#132e65" stroke-width="1.5"></path><path d="M849.49 490.38L791.9 644.31" stroke="#132e65" stroke-width="1.5"></path><path d="M849.49 490.38L999.15 561.95" stroke="#132e65" stroke-width="1.5"></path><path d="M791.9 644.31L791.9 644.31" stroke="#132e65" stroke-width="1.5"></path><path d="M950.66 -41.21L950.66 -41.21" stroke="#132e65" stroke-width="1.5"></path><path d="M950.66 -41.21L991.46 109.23" stroke="#132e65" stroke-width="1.5"></path><path d="M950.66 -41.21L1111.27 -38.7" stroke="#132e65" stroke-width="1.5"></path><path d="M991.46 109.23L991.46 109.23" stroke="#132e65" stroke-width="1.5"></path><path d="M991.46 109.23L1101.12 48.01" stroke="#132e65" stroke-width="1.5"></path><path d="M952.63 245.93L952.63 245.93" stroke="#132e65" stroke-width="1.5"></path><path d="M952.63 245.93L980.6 341.36" stroke="#132e65" stroke-width="1.5"></path><path d="M952.63 245.93L849.28 188.13" stroke="#132e65" stroke-width="1.5"></path><path d="M952.63 245.93L991.46 109.23" stroke="#132e65" stroke-width="1.5"></path><path d="M980.6 341.36L980.6 341.36" stroke="#132e65" stroke-width="1.5"></path><path d="M980.6 341.36L1097.93 255.57" stroke="#132e65" stroke-width="1.5"></path><path d="M980.6 341.36L1131.22 379.77" stroke="#132e65" stroke-width="1.5"></path><path d="M999.15 561.95L999.15 561.95" stroke="#132e65" stroke-width="1.5"></path><path d="M999.15 561.95L1132.44 550.14" stroke="#132e65" stroke-width="1.5"></path><path d="M999.15 561.95L952.95 700.48" stroke="#132e65" stroke-width="1.5"></path><path d="M999.15 561.95L1098.32 677.41" stroke="#132e65" stroke-width="1.5"></path><path d="M999.15 561.95L980.6 341.36" stroke="#132e65" stroke-width="1.5"></path><path d="M952.95 700.48L952.95 700.48" stroke="#132e65" stroke-width="1.5"></path><path d="M952.95 700.48L1098.32 677.41" stroke="#132e65" stroke-width="1.5"></path><path d="M952.95 700.48L791.9 644.31" stroke="#132e65" stroke-width="1.5"></path><path d="M1111.27 -38.7L1111.27 -38.7" stroke="#132e65" stroke-width="1.5"></path><path d="M1111.27 -38.7L1101.12 48.01" stroke="#132e65" stroke-width="1.5"></path><path d="M1101.12 48.01L1101.12 48.01" stroke="#132e65" stroke-width="1.5"></path><path d="M1101.12 48.01L1265.62 98.77" stroke="#132e65" stroke-width="1.5"></path><path d="M1101.12 48.01L950.66 -41.21" stroke="#132e65" stroke-width="1.5"></path><path d="M1101.12 48.01L1278.98 -50.78" stroke="#132e65" stroke-width="1.5"></path><path d="M1101.12 48.01L1097.93 255.57" stroke="#132e65" stroke-width="1.5"></path><path d="M1097.93 255.57L1097.93 255.57" stroke="#132e65" stroke-width="1.5"></path><path d="M1097.93 255.57L1131.22 379.77" stroke="#132e65" stroke-width="1.5"></path><path d="M1131.22 379.77L1131.22 379.77" stroke="#132e65" stroke-width="1.5"></path><path d="M1131.22 379.77L1280.32 381.37" stroke="#132e65" stroke-width="1.5"></path><path d="M1131.22 379.77L1132.44 550.14" stroke="#132e65" stroke-width="1.5"></path><path d="M1131.22 379.77L1270.93 532.14" stroke="#132e65" stroke-width="1.5"></path><path d="M1132.44 550.14L1132.44 550.14" stroke="#132e65" stroke-width="1.5"></path><path d="M1132.44 550.14L1098.32 677.41" stroke="#132e65" stroke-width="1.5"></path><path d="M1132.44 550.14L1270.93 532.14" stroke="#132e65" stroke-width="1.5"></path><path d="M1132.44 550.14L1262.21 643.76" stroke="#132e65" stroke-width="1.5"></path><path d="M1098.32 677.41L1098.32 677.41" stroke="#132e65" stroke-width="1.5"></path><path d="M1278.98 -50.78L1278.98 -50.78" stroke="#132e65" stroke-width="1.5"></path><path d="M1278.98 -50.78L1409.24 -42.95" stroke="#132e65" stroke-width="1.5"></path><path d="M1278.98 -50.78L1265.62 98.77" stroke="#132e65" stroke-width="1.5"></path><path d="M1278.98 -50.78L1392.9 66.63" stroke="#132e65" stroke-width="1.5"></path><path d="M1265.62 98.77L1265.62 98.77" stroke="#132e65" stroke-width="1.5"></path><path d="M1265.62 98.77L1392.9 66.63" stroke="#132e65" stroke-width="1.5"></path><path d="M1265.62 98.77L1310.59 241.8" stroke="#132e65" stroke-width="1.5"></path><path d="M1265.62 98.77L1389.47 204.37" stroke="#132e65" stroke-width="1.5"></path><path d="M1265.62 98.77L1409.24 -42.95" stroke="#132e65" stroke-width="1.5"></path><path d="M1310.59 241.8L1310.59 241.8" stroke="#132e65" stroke-width="1.5"></path><path d="M1310.59 241.8L1389.47 204.37" stroke="#132e65" stroke-width="1.5"></path><path d="M1310.59 241.8L1280.32 381.37" stroke="#132e65" stroke-width="1.5"></path><path d="M1310.59 241.8L1399.76 382.83" stroke="#132e65" stroke-width="1.5"></path><path d="M1310.59 241.8L1392.9 66.63" stroke="#132e65" stroke-width="1.5"></path><path d="M1280.32 381.37L1280.32 381.37" stroke="#132e65" stroke-width="1.5"></path><path d="M1280.32 381.37L1399.76 382.83" stroke="#132e65" stroke-width="1.5"></path><path d="M1270.93 532.14L1270.93 532.14" stroke="#132e65" stroke-width="1.5"></path><path d="M1270.93 532.14L1262.21 643.76" stroke="#132e65" stroke-width="1.5"></path><path d="M1270.93 532.14L1280.32 381.37" stroke="#132e65" stroke-width="1.5"></path><path d="M1262.21 643.76L1262.21 643.76" stroke="#132e65" stroke-width="1.5"></path><path d="M1262.21 643.76L1400.95 664.66" stroke="#132e65" stroke-width="1.5"></path><path d="M1409.24 -42.95L1409.24 -42.95" stroke="#132e65" stroke-width="1.5"></path><path d="M1409.24 -42.95L1392.9 66.63" stroke="#132e65" stroke-width="1.5"></path><path d="M1409.24 -42.95L1538.82 -110.5" stroke="#132e65" stroke-width="1.5"></path><path d="M1409.24 -42.95L1590.76 67.66" stroke="#132e65" stroke-width="1.5"></path><path d="M1392.9 66.63L1392.9 66.63" stroke="#132e65" stroke-width="1.5"></path><path d="M1392.9 66.63L1389.47 204.37" stroke="#132e65" stroke-width="1.5"></path><path d="M1389.47 204.37L1389.47 204.37" stroke="#132e65" stroke-width="1.5"></path><path d="M1389.47 204.37L1399.76 382.83" stroke="#132e65" stroke-width="1.5"></path><path d="M1389.47 204.37L1576.11 256.98" stroke="#132e65" stroke-width="1.5"></path><path d="M1389.47 204.37L1280.32 381.37" stroke="#132e65" stroke-width="1.5"></path><path d="M1399.76 382.83L1399.76 382.83" stroke="#132e65" stroke-width="1.5"></path><path d="M1399.76 382.83L1440.8 530.88" stroke="#132e65" stroke-width="1.5"></path><path d="M1399.76 382.83L1576.81 350.46" stroke="#132e65" stroke-width="1.5"></path><path d="M1399.76 382.83L1270.93 532.14" stroke="#132e65" stroke-width="1.5"></path><path d="M1440.8 530.88L1440.8 530.88" stroke="#132e65" stroke-width="1.5"></path><path d="M1440.8 530.88L1549.17 545.61" stroke="#132e65" stroke-width="1.5"></path><path d="M1440.8 530.88L1400.95 664.66" stroke="#132e65" stroke-width="1.5"></path><path d="M1440.8 530.88L1270.93 532.14" stroke="#132e65" stroke-width="1.5"></path><path d="M1440.8 530.88L1262.21 643.76" stroke="#132e65" stroke-width="1.5"></path><path d="M1440.8 530.88L1280.32 381.37" stroke="#132e65" stroke-width="1.5"></path><path d="M1400.95 664.66L1400.95 664.66" stroke="#132e65" stroke-width="1.5"></path><path d="M1400.95 664.66L1581.26 708.08" stroke="#132e65" stroke-width="1.5"></path><path d="M1400.95 664.66L1270.93 532.14" stroke="#132e65" stroke-width="1.5"></path><path d="M1400.95 664.66L1549.17 545.61" stroke="#132e65" stroke-width="1.5"></path><path d="M1538.82 -110.5L1538.82 -110.5" stroke="#132e65" stroke-width="1.5"></path><path d="M1538.82 -110.5L1590.76 67.66" stroke="#132e65" stroke-width="1.5"></path><path d="M1538.82 -110.5L1392.9 66.63" stroke="#132e65" stroke-width="1.5"></path><path d="M1538.82 -110.5L1278.98 -50.78" stroke="#132e65" stroke-width="1.5"></path><path d="M1538.82 -110.5L1265.62 98.77" stroke="#132e65" stroke-width="1.5"></path><path d="M1590.76 67.66L1590.76 67.66" stroke="#132e65" stroke-width="1.5"></path><path d="M1590.76 67.66L1576.11 256.98" stroke="#132e65" stroke-width="1.5"></path><path d="M1576.11 256.98L1576.11 256.98" stroke="#132e65" stroke-width="1.5"></path><path d="M1576.11 256.98L1576.81 350.46" stroke="#132e65" stroke-width="1.5"></path><path d="M1576.81 350.46L1576.81 350.46" stroke="#132e65" stroke-width="1.5"></path><path d="M1549.17 545.61L1549.17 545.61" stroke="#132e65" stroke-width="1.5"></path><path d="M1549.17 545.61L1581.26 708.08" stroke="#132e65" stroke-width="1.5"></path><path d="M1549.17 545.61L1576.81 350.46" stroke="#132e65" stroke-width="1.5"></path><path d="M1581.26 708.08L1581.26 708.08" stroke="#132e65" stroke-width="1.5"></path><path d="M1581.26 708.08L1440.8 530.88" stroke="#132e65" stroke-width="1.5"></path><path d="M1581.26 708.08L1262.21 643.76" stroke="#132e65" stroke-width="1.5"></path><circle r="5" cx="-96.09" cy="376.71" fill="#132e65"></circle><circle r="5" cx="-73.61" cy="534.78" fill="#132e65"></circle><circle r="5" cx="-48.26" cy="693.98" fill="#132e65"></circle><circle r="5" cx="46.82" cy="394.53" fill="#132e65"></circle><circle r="5" cx="105.03" cy="561.81" fill="#132e65"></circle><circle r="5" cx="93.74" cy="691.35" fill="#132e65"></circle><circle r="5" cx="254.96" cy="344.58" fill="#132e65"></circle><circle r="5" cx="228.13" cy="546.68" fill="#132e65"></circle><circle r="5" cx="405.86" cy="395.76" fill="#132e65"></circle><circle r="5" cx="354.23" cy="547.54" fill="#132e65"></circle><circle r="5" cx="366.92" cy="640.68" fill="#132e65"></circle><circle r="5" cx="558.4" cy="384.93" fill="#132e65"></circle><circle r="5" cx="516.93" cy="515.75" fill="#132e65"></circle><circle r="5" cx="545.95" cy="687.32" fill="#132e65"></circle><circle r="5" cx="656.2" cy="387.41" fill="#132e65"></circle><circle r="5" cx="679.53" cy="553.22" fill="#132e65"></circle><circle r="5" cx="669.51" cy="672.16" fill="#132e65"></circle><circle r="5" cx="856.57" cy="100.81" fill="#132e65"></circle><circle r="5" cx="849.28" cy="188.13" fill="#132e65"></circle><circle r="5" cx="809.78" cy="353.14" fill="#132e65"></circle><circle r="5" cx="849.49" cy="490.38" fill="#132e65"></circle><circle r="5" cx="791.9" cy="644.31" fill="#132e65"></circle><circle r="5" cx="950.66" cy="-41.21" fill="#132e65"></circle><circle r="5" cx="991.46" cy="109.23" fill="#132e65"></circle><circle r="5" cx="952.63" cy="245.93" fill="#132e65"></circle><circle r="5" cx="980.6" cy="341.36" fill="#132e65"></circle><circle r="5" cx="999.15" cy="561.95" fill="#132e65"></circle><circle r="5" cx="952.95" cy="700.48" fill="#132e65"></circle><circle r="5" cx="1111.27" cy="-38.7" fill="#132e65"></circle><circle r="5" cx="1101.12" cy="48.01" fill="#132e65"></circle><circle r="5" cx="1097.93" cy="255.57" fill="#132e65"></circle><circle r="5" cx="1131.22" cy="379.77" fill="#132e65"></circle><circle r="5" cx="1132.44" cy="550.14" fill="#132e65"></circle><circle r="5" cx="1098.32" cy="677.41" fill="#132e65"></circle><circle r="5" cx="1278.98" cy="-50.78" fill="#132e65"></circle><circle r="5" cx="1265.62" cy="98.77" fill="#132e65"></circle><circle r="5" cx="1310.59" cy="241.8" fill="#132e65"></circle><circle r="5" cx="1280.32" cy="381.37" fill="#132e65"></circle><circle r="5" cx="1270.93" cy="532.14" fill="#132e65"></circle><circle r="5" cx="1262.21" cy="643.76" fill="#132e65"></circle><circle r="5" cx="1409.24" cy="-42.95" fill="#132e65"></circle><circle r="5" cx="1392.9" cy="66.63" fill="#132e65"></circle><circle r="5" cx="1389.47" cy="204.37" fill="#132e65"></circle><circle r="5" cx="1399.76" cy="382.83" fill="#132e65"></circle><circle r="5" cx="1440.8" cy="530.88" fill="#132e65"></circle><circle r="5" cx="1400.95" cy="664.66" fill="#132e65"></circle><circle r="5" cx="1538.82" cy="-110.5" fill="#132e65"></circle><circle r="5" cx="1590.76" cy="67.66" fill="#132e65"></circle><circle r="5" cx="1576.11" cy="256.98" fill="#132e65"></circle><circle r="5" cx="1576.81" cy="350.46" fill="#132e65"></circle><circle r="5" cx="1549.17" cy="545.61" fill="#132e65"></circle><circle r="5" cx="1581.26" cy="708.08" fill="#132e65"></circle><path d="M-60.21 521.61L-60.21 521.61" stroke="hsl(228.5, 77.2%, 51.5%)" stroke-width="1.5"></path><path d="M-60.21 521.61L47.89 502.71" stroke="hsl(228.5, 77.2%, 51.5%)" stroke-width="1.5"></path><path d="M-60.21 521.61L-106.72 641.79" stroke="hsl(228.5, 77.2%, 51.5%)" stroke-width="1.5"></path><path d="M-60.21 521.61L66.39 680.14" stroke="hsl(228.5, 77.2%, 51.5%)" stroke-width="1.5"></path><path d="M-60.21 521.61L189.42 554.85" stroke="hsl(228.5, 77.2%, 51.5%)" stroke-width="1.5"></path><path d="M-60.21 521.61L216.76 681.45" stroke="hsl(228.5, 77.2%, 51.5%)" stroke-width="1.5"></path><path d="M-60.21 521.61L363.06 655.81" stroke="hsl(228.5, 77.2%, 51.5%)" stroke-width="1.5"></path><path d="M216.76 681.45L216.76 681.45" stroke="hsl(228.5, 77.2%, 51.5%)" stroke-width="1.5"></path><path d="M216.76 681.45L189.42 554.85" stroke="hsl(228.5, 77.2%, 51.5%)" stroke-width="1.5"></path><path d="M216.76 681.45L363.06 655.81" stroke="hsl(228.5, 77.2%, 51.5%)" stroke-width="1.5"></path><path d="M216.76 681.45L66.39 680.14" stroke="hsl(228.5, 77.2%, 51.5%)" stroke-width="1.5"></path><path d="M216.76 681.45L47.89 502.71" stroke="hsl(228.5, 77.2%, 51.5%)" stroke-width="1.5"></path><path d="M556.21 641.31L556.21 641.31" stroke="hsl(228.5, 77.2%, 51.5%)" stroke-width="1.5"></path><path d="M556.21 641.31L639.08 682.84" stroke="hsl(228.5, 77.2%, 51.5%)" stroke-width="1.5"></path><path d="M556.21 641.31L562.12 530.14" stroke="hsl(228.5, 77.2%, 51.5%)" stroke-width="1.5"></path><path d="M556.21 641.31L683.8 557.42" stroke="hsl(228.5, 77.2%, 51.5%)" stroke-width="1.5"></path><path d="M556.21 641.31L363.06 655.81" stroke="hsl(228.5, 77.2%, 51.5%)" stroke-width="1.5"></path><path d="M556.21 641.31L400.78 494.19" stroke="hsl(228.5, 77.2%, 51.5%)" stroke-width="1.5"></path><path d="M556.21 641.31L847.22 685.76" stroke="hsl(228.5, 77.2%, 51.5%)" stroke-width="1.5"></path><path d="M1300.66 223.8L1300.66 223.8" stroke="hsl(228.5, 77.2%, 51.5%)" stroke-width="1.5"></path><path d="M1300.66 223.8L1395.3 222.69" stroke="hsl(228.5, 77.2%, 51.5%)" stroke-width="1.5"></path><path d="M1300.66 223.8L1291.15 75.17" stroke="hsl(228.5, 77.2%, 51.5%)" stroke-width="1.5"></path><path d="M1300.66 223.8L1420.72 89.96" stroke="hsl(228.5, 77.2%, 51.5%)" stroke-width="1.5"></path><path d="M1300.66 223.8L1161.73 105.59" stroke="hsl(228.5, 77.2%, 51.5%)" stroke-width="1.5"></path><path d="M1300.66 223.8L1118.5 214.09" stroke="hsl(228.5, 77.2%, 51.5%)" stroke-width="1.5"></path><path d="M1300.66 223.8L1258.88 408.63" stroke="hsl(228.5, 77.2%, 51.5%)" stroke-width="1.5"></path><path d="M1395.3 222.69L1395.3 222.69" stroke="hsl(228.5, 77.2%, 51.5%)" stroke-width="1.5"></path><path d="M1395.3 222.69L1420.72 89.96" stroke="hsl(228.5, 77.2%, 51.5%)" stroke-width="1.5"></path><path d="M1395.3 222.69L1453.41 345.89" stroke="hsl(228.5, 77.2%, 51.5%)" stroke-width="1.5"></path><path d="M1449 696.14L1449 696.14" stroke="hsl(228.5, 77.2%, 51.5%)" stroke-width="1.5"></path><path d="M1449 696.14L1590.71 667.69" stroke="hsl(228.5, 77.2%, 51.5%)" stroke-width="1.5"></path><path d="M1449 696.14L1556.92 546.18" stroke="hsl(228.5, 77.2%, 51.5%)" stroke-width="1.5"></path><path d="M1449 696.14L1390.93 508.62" stroke="hsl(228.5, 77.2%, 51.5%)" stroke-width="1.5"></path><path d="M1449 696.14L1239.87 510.03" stroke="hsl(228.5, 77.2%, 51.5%)" stroke-width="1.5"></path><path d="M1449 696.14L1114.3 708.29" stroke="hsl(228.5, 77.2%, 51.5%)" stroke-width="1.5"></path><path d="M1558.14 218.75L1558.14 218.75" stroke="hsl(228.5, 77.2%, 51.5%)" stroke-width="1.5"></path><path d="M1558.14 218.75L1538.9 373" stroke="hsl(228.5, 77.2%, 51.5%)" stroke-width="1.5"></path><path d="M1558.14 218.75L1559.23 59.82" stroke="hsl(228.5, 77.2%, 51.5%)" stroke-width="1.5"></path><path d="M1558.14 218.75L1395.3 222.69" stroke="hsl(228.5, 77.2%, 51.5%)" stroke-width="1.5"></path><path d="M-106.72 641.79L-106.72 641.79" stroke="hsl(228.5, 77.2%, 51.5%)" stroke-width="1.5"></path><path d="M47.89 502.71L47.89 502.71" stroke="hsl(228.5, 77.2%, 51.5%)" stroke-width="1.5"></path><path d="M47.89 502.71L189.42 554.85" stroke="hsl(228.5, 77.2%, 51.5%)" stroke-width="1.5"></path><path d="M47.89 502.71L66.39 680.14" stroke="hsl(228.5, 77.2%, 51.5%)" stroke-width="1.5"></path><path d="M47.89 502.71L-106.72 641.79" stroke="hsl(228.5, 77.2%, 51.5%)" stroke-width="1.5"></path><path d="M66.39 680.14L66.39 680.14" stroke="hsl(228.5, 77.2%, 51.5%)" stroke-width="1.5"></path><path d="M66.39 680.14L189.42 554.85" stroke="hsl(228.5, 77.2%, 51.5%)" stroke-width="1.5"></path><path d="M66.39 680.14L-106.72 641.79" stroke="hsl(228.5, 77.2%, 51.5%)" stroke-width="1.5"></path><path d="M189.42 554.85L189.42 554.85" stroke="hsl(228.5, 77.2%, 51.5%)" stroke-width="1.5"></path><path d="M189.42 554.85L363.06 655.81" stroke="hsl(228.5, 77.2%, 51.5%)" stroke-width="1.5"></path><path d="M189.42 554.85L400.78 494.19" stroke="hsl(228.5, 77.2%, 51.5%)" stroke-width="1.5"></path><path d="M400.78 494.19L400.78 494.19" stroke="hsl(228.5, 77.2%, 51.5%)" stroke-width="1.5"></path><path d="M400.78 494.19L562.12 530.14" stroke="hsl(228.5, 77.2%, 51.5%)" stroke-width="1.5"></path><path d="M400.78 494.19L363.06 655.81" stroke="hsl(228.5, 77.2%, 51.5%)" stroke-width="1.5"></path><path d="M400.78 494.19L216.76 681.45" stroke="hsl(228.5, 77.2%, 51.5%)" stroke-width="1.5"></path><path d="M400.78 494.19L683.8 557.42" stroke="hsl(228.5, 77.2%, 51.5%)" stroke-width="1.5"></path><path d="M363.06 655.81L363.06 655.81" stroke="hsl(228.5, 77.2%, 51.5%)" stroke-width="1.5"></path><path d="M363.06 655.81L562.12 530.14" stroke="hsl(228.5, 77.2%, 51.5%)" stroke-width="1.5"></path><path d="M363.06 655.81L639.08 682.84" stroke="hsl(228.5, 77.2%, 51.5%)" stroke-width="1.5"></path><path d="M562.12 530.14L562.12 530.14" stroke="hsl(228.5, 77.2%, 51.5%)" stroke-width="1.5"></path><path d="M562.12 530.14L683.8 557.42" stroke="hsl(228.5, 77.2%, 51.5%)" stroke-width="1.5"></path><path d="M562.12 530.14L639.08 682.84" stroke="hsl(228.5, 77.2%, 51.5%)" stroke-width="1.5"></path><path d="M710.73 364.11L710.73 364.11" stroke="hsl(228.5, 77.2%, 51.5%)" stroke-width="1.5"></path><path d="M710.73 364.11L849.31 392.31" stroke="hsl(228.5, 77.2%, 51.5%)" stroke-width="1.5"></path><path d="M710.73 364.11L822.31 489.36" stroke="hsl(228.5, 77.2%, 51.5%)" stroke-width="1.5"></path><path d="M710.73 364.11L683.8 557.42" stroke="hsl(228.5, 77.2%, 51.5%)" stroke-width="1.5"></path><path d="M710.73 364.11L562.12 530.14" stroke="hsl(228.5, 77.2%, 51.5%)" stroke-width="1.5"></path><path d="M683.8 557.42L683.8 557.42" stroke="hsl(228.5, 77.2%, 51.5%)" stroke-width="1.5"></path><path d="M683.8 557.42L639.08 682.84" stroke="hsl(228.5, 77.2%, 51.5%)" stroke-width="1.5"></path><path d="M683.8 557.42L822.31 489.36" stroke="hsl(228.5, 77.2%, 51.5%)" stroke-width="1.5"></path><path d="M639.08 682.84L639.08 682.84" stroke="hsl(228.5, 77.2%, 51.5%)" stroke-width="1.5"></path><path d="M639.08 682.84L847.22 685.76" stroke="hsl(228.5, 77.2%, 51.5%)" stroke-width="1.5"></path><path d="M639.08 682.84L822.31 489.36" stroke="hsl(228.5, 77.2%, 51.5%)" stroke-width="1.5"></path><path d="M849.31 392.31L849.31 392.31" stroke="hsl(228.5, 77.2%, 51.5%)" stroke-width="1.5"></path><path d="M849.31 392.31L822.31 489.36" stroke="hsl(228.5, 77.2%, 51.5%)" stroke-width="1.5"></path><path d="M849.31 392.31L1010.35 358.42" stroke="hsl(228.5, 77.2%, 51.5%)" stroke-width="1.5"></path><path d="M849.31 392.31L683.8 557.42" stroke="hsl(228.5, 77.2%, 51.5%)" stroke-width="1.5"></path><path d="M822.31 489.36L822.31 489.36" stroke="hsl(228.5, 77.2%, 51.5%)" stroke-width="1.5"></path><path d="M822.31 489.36L847.22 685.76" stroke="hsl(228.5, 77.2%, 51.5%)" stroke-width="1.5"></path><path d="M847.22 685.76L847.22 685.76" stroke="hsl(228.5, 77.2%, 51.5%)" stroke-width="1.5"></path><path d="M847.22 685.76L1001.13 682.65" stroke="hsl(228.5, 77.2%, 51.5%)" stroke-width="1.5"></path><path d="M847.22 685.76L683.8 557.42" stroke="hsl(228.5, 77.2%, 51.5%)" stroke-width="1.5"></path><path d="M1010.35 358.42L1010.35 358.42" stroke="hsl(228.5, 77.2%, 51.5%)" stroke-width="1.5"></path><path d="M1010.35 358.42L1118.5 214.09" stroke="hsl(228.5, 77.2%, 51.5%)" stroke-width="1.5"></path><path d="M1010.35 358.42L1132.56 543.78" stroke="hsl(228.5, 77.2%, 51.5%)" stroke-width="1.5"></path><path d="M1010.35 358.42L822.31 489.36" stroke="hsl(228.5, 77.2%, 51.5%)" stroke-width="1.5"></path><path d="M1010.35 358.42L1258.88 408.63" stroke="hsl(228.5, 77.2%, 51.5%)" stroke-width="1.5"></path><path d="M1010.35 358.42L1239.87 510.03" stroke="hsl(228.5, 77.2%, 51.5%)" stroke-width="1.5"></path><path d="M1001.13 682.65L1001.13 682.65" stroke="hsl(228.5, 77.2%, 51.5%)" stroke-width="1.5"></path><path d="M1001.13 682.65L1114.3 708.29" stroke="hsl(228.5, 77.2%, 51.5%)" stroke-width="1.5"></path><path d="M1161.73 105.59L1161.73 105.59" stroke="hsl(228.5, 77.2%, 51.5%)" stroke-width="1.5"></path><path d="M1161.73 105.59L1118.5 214.09" stroke="hsl(228.5, 77.2%, 51.5%)" stroke-width="1.5"></path><path d="M1161.73 105.59L1291.15 75.17" stroke="hsl(228.5, 77.2%, 51.5%)" stroke-width="1.5"></path><path d="M1161.73 105.59L1254.03 -45.29" stroke="hsl(228.5, 77.2%, 51.5%)" stroke-width="1.5"></path><path d="M1161.73 105.59L1420.72 89.96" stroke="hsl(228.5, 77.2%, 51.5%)" stroke-width="1.5"></path><path d="M1118.5 214.09L1118.5 214.09" stroke="hsl(228.5, 77.2%, 51.5%)" stroke-width="1.5"></path><path d="M1132.56 543.78L1132.56 543.78" stroke="hsl(228.5, 77.2%, 51.5%)" stroke-width="1.5"></path><path d="M1132.56 543.78L1239.87 510.03" stroke="hsl(228.5, 77.2%, 51.5%)" stroke-width="1.5"></path><path d="M1132.56 543.78L1114.3 708.29" stroke="hsl(228.5, 77.2%, 51.5%)" stroke-width="1.5"></path><path d="M1132.56 543.78L1258.88 408.63" stroke="hsl(228.5, 77.2%, 51.5%)" stroke-width="1.5"></path><path d="M1132.56 543.78L1001.13 682.65" stroke="hsl(228.5, 77.2%, 51.5%)" stroke-width="1.5"></path><path d="M1114.3 708.29L1114.3 708.29" stroke="hsl(228.5, 77.2%, 51.5%)" stroke-width="1.5"></path><path d="M1114.3 708.29L1239.87 510.03" stroke="hsl(228.5, 77.2%, 51.5%)" stroke-width="1.5"></path><path d="M1114.3 708.29L847.22 685.76" stroke="hsl(228.5, 77.2%, 51.5%)" stroke-width="1.5"></path><path d="M1114.3 708.29L1258.88 408.63" stroke="hsl(228.5, 77.2%, 51.5%)" stroke-width="1.5"></path><path d="M1254.03 -45.29L1254.03 -45.29" stroke="hsl(228.5, 77.2%, 51.5%)" stroke-width="1.5"></path><path d="M1254.03 -45.29L1291.15 75.17" stroke="hsl(228.5, 77.2%, 51.5%)" stroke-width="1.5"></path><path d="M1254.03 -45.29L1449.55 -87.13" stroke="hsl(228.5, 77.2%, 51.5%)" stroke-width="1.5"></path><path d="M1254.03 -45.29L1420.72 89.96" stroke="hsl(228.5, 77.2%, 51.5%)" stroke-width="1.5"></path><path d="M1254.03 -45.29L1300.66 223.8" stroke="hsl(228.5, 77.2%, 51.5%)" stroke-width="1.5"></path><path d="M1291.15 75.17L1291.15 75.17" stroke="hsl(228.5, 77.2%, 51.5%)" stroke-width="1.5"></path><path d="M1291.15 75.17L1420.72 89.96" stroke="hsl(228.5, 77.2%, 51.5%)" stroke-width="1.5"></path><path d="M1291.15 75.17L1395.3 222.69" stroke="hsl(228.5, 77.2%, 51.5%)" stroke-width="1.5"></path><path d="M1258.88 408.63L1258.88 408.63" stroke="hsl(228.5, 77.2%, 51.5%)" stroke-width="1.5"></path><path d="M1258.88 408.63L1239.87 510.03" stroke="hsl(228.5, 77.2%, 51.5%)" stroke-width="1.5"></path><path d="M1258.88 408.63L1390.93 508.62" stroke="hsl(228.5, 77.2%, 51.5%)" stroke-width="1.5"></path><path d="M1258.88 408.63L1453.41 345.89" stroke="hsl(228.5, 77.2%, 51.5%)" stroke-width="1.5"></path><path d="M1239.87 510.03L1239.87 510.03" stroke="hsl(228.5, 77.2%, 51.5%)" stroke-width="1.5"></path><path d="M1239.87 510.03L1390.93 508.62" stroke="hsl(228.5, 77.2%, 51.5%)" stroke-width="1.5"></path><path d="M1239.87 510.03L1453.41 345.89" stroke="hsl(228.5, 77.2%, 51.5%)" stroke-width="1.5"></path><path d="M1449.55 -87.13L1449.55 -87.13" stroke="hsl(228.5, 77.2%, 51.5%)" stroke-width="1.5"></path><path d="M1449.55 -87.13L1420.72 89.96" stroke="hsl(228.5, 77.2%, 51.5%)" stroke-width="1.5"></path><path d="M1449.55 -87.13L1559.23 59.82" stroke="hsl(228.5, 77.2%, 51.5%)" stroke-width="1.5"></path><path d="M1449.55 -87.13L1291.15 75.17" stroke="hsl(228.5, 77.2%, 51.5%)" stroke-width="1.5"></path><path d="M1420.72 89.96L1420.72 89.96" stroke="hsl(228.5, 77.2%, 51.5%)" stroke-width="1.5"></path><path d="M1420.72 89.96L1559.23 59.82" stroke="hsl(228.5, 77.2%, 51.5%)" stroke-width="1.5"></path><path d="M1453.41 345.89L1453.41 345.89" stroke="hsl(228.5, 77.2%, 51.5%)" stroke-width="1.5"></path><path d="M1453.41 345.89L1538.9 373" stroke="hsl(228.5, 77.2%, 51.5%)" stroke-width="1.5"></path><path d="M1453.41 345.89L1558.14 218.75" stroke="hsl(228.5, 77.2%, 51.5%)" stroke-width="1.5"></path><path d="M1453.41 345.89L1390.93 508.62" stroke="hsl(228.5, 77.2%, 51.5%)" stroke-width="1.5"></path><path d="M1453.41 345.89L1300.66 223.8" stroke="hsl(228.5, 77.2%, 51.5%)" stroke-width="1.5"></path><path d="M1390.93 508.62L1390.93 508.62" stroke="hsl(228.5, 77.2%, 51.5%)" stroke-width="1.5"></path><path d="M1390.93 508.62L1556.92 546.18" stroke="hsl(228.5, 77.2%, 51.5%)" stroke-width="1.5"></path><path d="M1559.23 59.82L1559.23 59.82" stroke="hsl(228.5, 77.2%, 51.5%)" stroke-width="1.5"></path><path d="M1538.9 373L1538.9 373" stroke="hsl(228.5, 77.2%, 51.5%)" stroke-width="1.5"></path><path d="M1538.9 373L1556.92 546.18" stroke="hsl(228.5, 77.2%, 51.5%)" stroke-width="1.5"></path><path d="M1538.9 373L1390.93 508.62" stroke="hsl(228.5, 77.2%, 51.5%)" stroke-width="1.5"></path><path d="M1538.9 373L1395.3 222.69" stroke="hsl(228.5, 77.2%, 51.5%)" stroke-width="1.5"></path><path d="M1538.9 373L1300.66 223.8" stroke="hsl(228.5, 77.2%, 51.5%)" stroke-width="1.5"></path><path d="M1556.92 546.18L1556.92 546.18" stroke="hsl(228.5, 77.2%, 51.5%)" stroke-width="1.5"></path><path d="M1556.92 546.18L1590.71 667.69" stroke="hsl(228.5, 77.2%, 51.5%)" stroke-width="1.5"></path><path d="M1590.71 667.69L1590.71 667.69" stroke="hsl(228.5, 77.2%, 51.5%)" stroke-width="1.5"></path><path d="M1590.71 667.69L1390.93 508.62" stroke="hsl(228.5, 77.2%, 51.5%)" stroke-width="1.5"></path><circle r="25" cx="-60.21" cy="521.61" fill="url(#SvgjsRadialGradient1001)"></circle><circle r="25" cx="216.76" cy="681.45" fill="url(#SvgjsRadialGradient1001)"></circle><circle r="25" cx="556.21" cy="641.31" fill="url(#SvgjsRadialGradient1001)"></circle><circle r="25" cx="1300.66" cy="223.8" fill="url(#SvgjsRadialGradient1001)"></circle><circle r="25" cx="1395.3" cy="222.69" fill="url(#SvgjsRadialGradient1001)"></circle><circle r="25" cx="1449" cy="696.14" fill="url(#SvgjsRadialGradient1001)"></circle><circle r="25" cx="1558.14" cy="218.75" fill="url(#SvgjsRadialGradient1001)"></circle><circle r="5" cx="-106.72" cy="641.79" fill="#8b9ad9"></circle><circle r="5" cx="47.89" cy="502.71" fill="#8b9ad9"></circle><circle r="5" cx="66.39" cy="680.14" fill="#8b9ad9"></circle><circle r="5" cx="189.42" cy="554.85" fill="#8b9ad9"></circle><circle r="5" cx="400.78" cy="494.19" fill="#8b9ad9"></circle><circle r="5" cx="363.06" cy="655.81" fill="#8b9ad9"></circle><circle r="5" cx="562.12" cy="530.14" fill="#8b9ad9"></circle><circle r="5" cx="710.73" cy="364.11" fill="#8b9ad9"></circle><circle r="5" cx="683.8" cy="557.42" fill="#8b9ad9"></circle><circle r="5" cx="639.08" cy="682.84" fill="#8b9ad9"></circle><circle r="5" cx="849.31" cy="392.31" fill="#8b9ad9"></circle><circle r="5" cx="822.31" cy="489.36" fill="#8b9ad9"></circle><circle r="5" cx="847.22" cy="685.76" fill="#8b9ad9"></circle><circle r="5" cx="1010.35" cy="358.42" fill="#8b9ad9"></circle><circle r="5" cx="1001.13" cy="682.65" fill="#8b9ad9"></circle><circle r="5" cx="1161.73" cy="105.59" fill="#8b9ad9"></circle><circle r="5" cx="1118.5" cy="214.09" fill="#8b9ad9"></circle><circle r="5" cx="1132.56" cy="543.78" fill="#8b9ad9"></circle><circle r="5" cx="1114.3" cy="708.29" fill="#8b9ad9"></circle><circle r="5" cx="1254.03" cy="-45.29" fill="#8b9ad9"></circle><circle r="5" cx="1291.15" cy="75.17" fill="#8b9ad9"></circle><circle r="5" cx="1258.88" cy="408.63" fill="#8b9ad9"></circle><circle r="5" cx="1239.87" cy="510.03" fill="#8b9ad9"></circle><circle r="5" cx="1449.55" cy="-87.13" fill="#8b9ad9"></circle><circle r="5" cx="1420.72" cy="89.96" fill="#8b9ad9"></circle><circle r="5" cx="1453.41" cy="345.89" fill="#8b9ad9"></circle><circle r="5" cx="1390.93" cy="508.62" fill="#8b9ad9"></circle><circle r="5" cx="1559.23" cy="59.82" fill="#8b9ad9"></circle><circle r="5" cx="1538.9" cy="373" fill="#8b9ad9"></circle><circle r="5" cx="1556.92" cy="546.18" fill="#8b9ad9"></circle><circle r="5" cx="1590.71" cy="667.69" fill="#8b9ad9"></circle></g><defs><mask id="SvgjsMask1000"><rect width="1440" height="560" fill="#ffffff"></rect></mask><radialGradient id="SvgjsRadialGradient1001"><stop stop-color="#ffffff" offset="0.1"></stop><stop stop-color="#1735b3" offset="0.2"></stop><stop stop-color="rgba(23, 53, 179, 0)" offset="1"></stop></radialGradient></defs></svg>