<svg xmlns="http://www.w3.org/2000/svg" version="1.1" xmlns:xlink="http://www.w3.org/1999/xlink" xmlns:svgjs="http://svgjs.com/svgjs" width="1440" height="560" preserveAspectRatio="none" viewBox="0 0 1440 560"><g mask="url(&quot;#SvgjsMask1578&quot;)" fill="none"><g transform="translate(0, 117.6)" stroke-linecap="round"><path d="M302 208.16 L302 351.84" stroke-width="33" stroke="#3a7cc3"></path><path d="M346 202.58 L346 357.42" stroke-width="33" stroke="rgba(0, 191, 255, 1)"></path><path d="M390 170.79 L390 389.21" stroke-width="33" stroke="#3a7cc3"></path><path d="M434 242.87 L434 317.13" stroke-width="33" stroke="rgba(0, 191, 255, 1)"></path><path d="M478 171.17 L478 388.83" stroke-width="33" stroke="#3a7cc3"></path><path d="M522 172.16 L522 387.84" stroke-width="33" stroke="rgba(0, 191, 255, 1)"></path><path d="M566 225.42 L566 334.58" stroke-width="33" stroke="rgba(30, 144, 255, 1)"></path><path d="M610 174.44 L610 385.56" stroke-width="33" stroke="#3a7cc3"></path><path d="M654 196.87 L654 363.13" stroke-width="33" stroke="rgba(0, 191, 255, 1)"></path><path d="M698 154.16 L698 405.84" stroke-width="33" stroke="rgba(0, 191, 255, 1)"></path><path d="M742 228.84 L742 331.15" stroke-width="33" stroke="rgba(0, 191, 255, 1)"></path><path d="M786 207.23 L786 352.77" stroke-width="33" stroke="rgba(0, 191, 255, 1)"></path><path d="M830 141.26 L830 418.74" stroke-width="33" stroke="rgba(30, 144, 255, 1)"></path><path d="M874 224.28 L874 335.72" stroke-width="33" stroke="rgba(0, 191, 255, 1)"></path><path d="M918 236.69 L918 323.31" stroke-width="33" stroke="#3a7cc3"></path><path d="M962 228.4 L962 331.61" stroke-width="33" stroke="rgba(30, 144, 255, 1)"></path><path d="M1006 173.06 L1006 386.94" stroke-width="33" stroke="rgba(30, 144, 255, 1)"></path><path d="M1050 259.88 L1050 300.13" stroke-width="33" stroke="#3a7cc3"></path><path d="M1094 238.45 L1094 321.55" stroke-width="33" stroke="#3a7cc3"></path><path d="M1138 196.83 L1138 363.17" stroke-width="33" stroke="rgba(0, 191, 255, 1)"></path></g></g><defs><mask id="SvgjsMask1578"><rect width="1440" height="560" fill="#ffffff"></rect></mask></defs></svg>