<svg id="visual" viewBox="0 0 900 600" width="900" height="600" xmlns="http://www.w3.org/2000/svg" xmlns:xlink="http://www.w3.org/1999/xlink" version="1.1"><path d="M0 103L13.7 95C27.3 87 54.7 71 82 61C109.3 51 136.7 47 163.8 52C191 57 218 71 245.2 74C272.3 77 299.7 69 327 73C354.3 77 381.7 93 409 100C436.3 107 463.7 105 491 96C518.3 87 545.7 71 573 63C600.3 55 627.7 55 654.8 61C682 67 709 79 736.2 86C763.3 93 790.7 95 818 99C845.3 103 872.7 109 886.3 112L900 115L900 0L886.3 0C872.7 0 845.3 0 818 0C790.7 0 763.3 0 736.2 0C709 0 682 0 654.8 0C627.7 0 600.3 0 573 0C545.7 0 518.3 0 491 0C463.7 0 436.3 0 409 0C381.7 0 354.3 0 327 0C299.7 0 272.3 0 245.2 0C218 0 191 0 163.8 0C136.7 0 109.3 0 82 0C54.7 0 27.3 0 13.7 0L0 0Z" fill="#6198ff"></path><path d="M0 295L13.7 282C27.3 269 54.7 243 82 232C109.3 221 136.7 225 163.8 236C191 247 218 265 245.2 283C272.3 301 299.7 319 327 303C354.3 287 381.7 237 409 226C436.3 215 463.7 243 491 259C518.3 275 545.7 279 573 273C600.3 267 627.7 251 654.8 254C682 257 709 279 736.2 287C763.3 295 790.7 289 818 297C845.3 305 872.7 327 886.3 338L900 349L900 113L886.3 110C872.7 107 845.3 101 818 97C790.7 93 763.3 91 736.2 84C709 77 682 65 654.8 59C627.7 53 600.3 53 573 61C545.7 69 518.3 85 491 94C463.7 103 436.3 105 409 98C381.7 91 354.3 75 327 71C299.7 67 272.3 75 245.2 72C218 69 191 55 163.8 50C136.7 45 109.3 49 82 59C54.7 69 27.3 85 13.7 93L0 101Z" fill="#3c80ff"></path><path d="M0 373L13.7 374C27.3 375 54.7 377 82 380C109.3 383 136.7 387 163.8 394C191 401 218 411 245.2 415C272.3 419 299.7 417 327 400C354.3 383 381.7 351 409 343C436.3 335 463.7 351 491 368C518.3 385 545.7 403 573 397C600.3 391 627.7 361 654.8 359C682 357 709 383 736.2 384C763.3 385 790.7 361 818 366C845.3 371 872.7 405 886.3 422L900 439L900 347L886.3 336C872.7 325 845.3 303 818 295C790.7 287 763.3 293 736.2 285C709 277 682 255 654.8 252C627.7 249 600.3 265 573 271C545.7 277 518.3 273 491 257C463.7 241 436.3 213 409 224C381.7 235 354.3 285 327 301C299.7 317 272.3 299 245.2 281C218 263 191 245 163.8 234C136.7 223 109.3 219 82 230C54.7 241 27.3 267 13.7 280L0 293Z" fill="#0066ff"></path><path d="M0 433L13.7 430C27.3 427 54.7 421 82 424C109.3 427 136.7 439 163.8 449C191 459 218 467 245.2 474C272.3 481 299.7 487 327 476C354.3 465 381.7 437 409 422C436.3 407 463.7 405 491 418C518.3 431 545.7 459 573 458C600.3 457 627.7 427 654.8 430C682 433 709 469 736.2 475C763.3 481 790.7 457 818 455C845.3 453 872.7 473 886.3 483L900 493L900 437L886.3 420C872.7 403 845.3 369 818 364C790.7 359 763.3 383 736.2 382C709 381 682 355 654.8 357C627.7 359 600.3 389 573 395C545.7 401 518.3 383 491 366C463.7 349 436.3 333 409 341C381.7 349 354.3 381 327 398C299.7 415 272.3 417 245.2 413C218 409 191 399 163.8 392C136.7 385 109.3 381 82 378C54.7 375 27.3 373 13.7 372L0 371Z" fill="#0059dd"></path><path d="M0 601L13.7 601C27.3 601 54.7 601 82 601C109.3 601 136.7 601 163.8 601C191 601 218 601 245.2 601C272.3 601 299.7 601 327 601C354.3 601 381.7 601 409 601C436.3 601 463.7 601 491 601C518.3 601 545.7 601 573 601C600.3 601 627.7 601 654.8 601C682 601 709 601 736.2 601C763.3 601 790.7 601 818 601C845.3 601 872.7 601 886.3 601L900 601L900 491L886.3 481C872.7 471 845.3 451 818 453C790.7 455 763.3 479 736.2 473C709 467 682 431 654.8 428C627.7 425 600.3 455 573 456C545.7 457 518.3 429 491 416C463.7 403 436.3 405 409 420C381.7 435 354.3 463 327 474C299.7 485 272.3 479 245.2 472C218 465 191 457 163.8 447C136.7 437 109.3 425 82 422C54.7 419 27.3 425 13.7 428L0 431Z" fill="#004cbb"></path></svg>