<svg id="visual" viewBox="0 0 900 600" width="900" height="600" xmlns="http://www.w3.org/2000/svg" xmlns:xlink="http://www.w3.org/1999/xlink" version="1.1"><rect x="0" y="0" width="900" height="600" fill="#002233"></rect><path d="M0 418L21.5 433.2C43 448.3 86 478.7 128.8 478.7C171.7 478.7 214.3 448.3 257.2 440.7C300 433 343 448 385.8 454.7C428.7 461.3 471.3 459.7 514.2 466.2C557 472.7 600 487.3 642.8 493.3C685.7 499.3 728.3 496.7 771.2 486.2C814 475.7 857 457.3 878.5 448.2L900 439L900 601L878.5 601C857 601 814 601 771.2 601C728.3 601 685.7 601 642.8 601C600 601 557 601 514.2 601C471.3 601 428.7 601 385.8 601C343 601 300 601 257.2 601C214.3 601 171.7 601 128.8 601C86 601 43 601 21.5 601L0 601Z" fill="#0066FF" stroke-linecap="round" stroke-linejoin="miter"></path></svg>